# xmcd CD database file generated by OrangeCD 5.2
#
# Track frame offsets:
#	150
#	21309
#	33179
#	47417
#	61506
#	80933
#	94484
#	111968
#
# Disc length: 1672 seconds
#
# Revision: 0
# Processed by: cddbd v1.5.1PL0 Copyright (c) Steve Scherf et al.
# Submitted via: OrangeCD 5.2
#
DISCID=61068608
DTITLE=Joe Valeriano - Furious
DYEAR=1900
DGENRE=Blues
TTITLE0=Furious
TTITLE1=The freak
TTITLE2=Solitude
TTITLE3=The lady in control
TTITLE4=Broken home
TTITLE5=Girl trouble
TTITLE6=bluesick
TTITLE7=Stop cryin'
EXTD=
EXTT0=
EXTT1=
EXTT2=
EXTT3=
EXTT4=
EXTT5=
EXTT6=
EXTT7=
PLAYORDER=
